# xmcd CD database file
#
# Track frame offsets:
#	150
#	14708
#	44024
#	70492
#	85266
#	96299
#	127866
#	162398
#
# Disc length: 2562 seconds
#
# Revision: 0
# Processed by: cddbd v1.5.2PL0 Copyright (c) Steve Scherf et al.
# Submitted via: CDex 1.70beta2
#
DISCID=6d0a0008
DTITLE=Glue - Chats With The Real Mccoy
DYEAR=2012
DGENRE=Jazz
TTITLE0=Fallen Lucifers
TTITLE1=Washington, Mint And Blushing Cherry
TTITLE2=Chats With The Real Mccoy
TTITLE3=The Wrong Food Buy
TTITLE4=She Is The Queenly Pearl
TTITLE5=The Tragic Jester
TTITLE6=Split Ink
TTITLE7=Red Dawn And Blue Denim
EXTD=YEAR: 2012
EXTT0=
EXTT1=
EXTT2=
EXTT3=
EXTT4=
EXTT5=
EXTT6=
EXTT7=
PLAYORDER=
